<svg xmlns="http://www.w3.org/2000/svg" viewBox="0 0 233.216 265.758"><path d="M233.206 132.879c.001-.127.01-.252.01-.379h-.019c-.406-22.445-18.715-40.519-41.257-40.519-1.384 0-2.75.071-4.099.204.003-.028.006-.055 0 0C152.56 91.981 140.9 71.5 140.9 44.912c.077-.008.038-.004 0 0 .105-1.199.169-2.409.169-3.635C141.069 18.48 122.589 0 99.793 0 76.996 0 58.516 18.48 58.516 41.276c0 22.796 18.48 41.276 41.276 41.276 2.623 0 4.518-.136 7.684.114 27.583.083 43.458 15.032 42.583 36.833v26.758c.875 21.801-15 36.75-42.583 36.833-3.167.25-5.061.114-7.684.114-22.796 0-41.276 18.48-41.276 41.276 0 22.796 18.48 41.276 41.276 41.276 22.796 0 41.276-18.48 41.276-41.276 0-1.226-.064-2.437-.169-3.635.038.004.077.008 0 0 0-26.588 11.66-47.069 46.94-47.273.007.055.003.028 0 0 1.349.133 2.715.204 4.099.204 22.542 0 40.852-18.073 41.257-40.519h.019c.002-.126-.007-.251-.008-.378z"/><path d="M82.533 133.258h.019c0-.127-.008-.252-.01-.379.001-.127.01-.252.01-.379h-.019c-.406-22.445-18.715-40.519-41.257-40.519S.425 110.055.019 132.5H0c0 .127.008.252.01.379-.002.127-.01.252-.01.379h.019c.406 22.445 18.715 40.519 41.257 40.519s40.852-18.074 41.257-40.519z"/></svg>